<svg xmlns="http://www.w3.org/2000/svg" width="18" height="18" viewBox="0 0 44 44">
  <!-- Menu Bar template image: pure black on transparent, macOS auto-tints -->

  <!-- Microphone head -->
  <rect x="14.5" y="4" width="15" height="16" rx="7.5" ry="7.5"
        fill="black"/>

  <!-- Sound lines on mic head -->
  <line x1="19" y1="9" x2="19" y2="15" stroke="white" stroke-opacity="0.4"
        stroke-width="1" stroke-linecap="round"/>
  <line x1="22" y1="8" x2="22" y2="16" stroke="white" stroke-opacity="0.4"
        stroke-width="1" stroke-linecap="round"/>
  <line x1="25" y1="9" x2="25" y2="15" stroke="white" stroke-opacity="0.4"
        stroke-width="1" stroke-linecap="round"/>

  <!-- Mic cradle -->
  <path d="M 12 14 C 12 25, 15 28, 22 28 C 29 28, 32 25, 32 14"
        fill="none" stroke="black" stroke-width="2.5" stroke-linecap="round"/>

  <!-- Mic stand -->
  <line x1="22" y1="28" x2="22" y2="33"
        stroke="black" stroke-width="2.2" stroke-linecap="round"/>

  <!-- Brush stroke -->
  <path d="
    M 21 33
    C 21.5 35, 21 36, 19.5 37.5
    C 18 38.5, 16 39.2, 15 39.5
    C 14 39.8, 15.5 40.2, 18 39.8
    C 22 39.2, 27 37.5, 32 35.8
    C 35 34.8, 37 34.2, 38.5 33.8
    Q 39.5 33.5, 39 34
    C 37 35, 34 36, 31 37
    C 26 38.8, 21 40.2, 17 41
    C 15 41.3, 14 41, 13.8 40.5
    C 13.5 39.8, 14.5 39, 16 38
    C 18 36.5, 19.5 35.5, 20.5 34
    C 21.3 33, 21.5 32.5, 22 33
    Z
  " fill="black"/>
</svg>
